<svg width="53" height="18" viewBox="0 0 53 18" fill="none" xmlns="http://www.w3.org/2000/svg">
<mask id="mask0_145_2" style="mask-type:alpha" maskUnits="userSpaceOnUse" x="0" y="0" width="53" height="18">
<path d="M3.96735 17.7306H0L6.14694 0H10.8735L16.9959 17.7306H13.0531L11.7306 13.6408H5.31429L3.96735 17.7306ZM6.2449 10.7755H10.8L8.57143 3.99184H8.44898L6.2449 10.7755Z" fill="white"/>
<path d="M26.2286 8.37551C26.0816 7.4449 25.249 6.83265 24.049 6.83265C22.8735 6.83265 21.9673 7.39592 21.9918 8.20408C21.9673 8.79184 22.4571 9.25714 23.7061 9.52653L26.0816 10.0163C28.6531 10.5551 29.902 11.7061 29.9265 13.6163C29.902 16.2367 27.551 18 24.0245 18C20.4245 18 18.3184 16.3837 18.0245 13.7878H21.6735C21.8449 14.8408 22.702 15.3796 24.0245 15.3796C25.3469 15.3796 26.2286 14.8408 26.2286 13.9837C26.2286 13.298 25.6653 12.8816 24.4163 12.6122L22.2122 12.1714C19.6898 11.6816 18.3673 10.3592 18.3918 8.4C18.3673 5.85306 20.5714 4.26122 24 4.26122C27.3551 4.26122 29.4367 5.85306 29.6327 8.37551H26.2286Z" fill="white"/>
<path d="M39.1592 4.43265V7.15102H36.6612V13.6408C36.6612 14.6939 37.1755 14.9633 37.9102 14.9878C38.2776 14.9878 38.9143 14.9633 39.3551 14.9143V17.7796C38.9633 17.8531 38.3265 17.902 37.4204 17.902C34.8 17.902 33.0122 16.7265 33.0367 14.1551V7.15102H31.2V4.43265H33.0367V1.24898H36.6612V4.43265H39.1592Z" fill="white"/>
<path d="M40.8 14.0082C40.8 11.0449 43.2 10.0653 45.7469 9.91837C46.702 9.85714 48.4898 9.77143 49.0531 9.74694V8.66939C49.0286 7.56735 48.2694 6.90612 46.9224 6.90612C45.698 6.90612 44.9143 7.46939 44.7184 8.37551H41.2653C41.4857 6.07347 43.4939 4.26122 47.0204 4.26122C49.9102 4.26122 52.6531 5.55918 52.6531 8.76735V17.7306H49.2245V15.8939H49.1265C48.4653 17.1184 47.2163 17.9755 45.2327 17.9755C42.6857 17.9755 40.8 16.6531 40.8 14.0082ZM44.2776 13.9102C44.2776 14.9388 45.1102 15.4776 46.2612 15.4776C47.902 15.4776 49.0776 14.3755 49.0531 12.9796V12C48.502 12.0245 46.9592 12.1102 46.3347 12.1714C45.0857 12.2939 44.2776 12.8816 44.2776 13.9102Z" fill="white"/>
</mask>
<g mask="url(#mask0_145_2)">
<rect x="14.5567" y="-6.5923" width="44.7274" height="44.7274" fill="#47B1F6"/>
<rect x="-23.8955" y="-7.66041" width="41.5965" height="41.5965" rx="20.7983" fill="#6356FD"/>
<rect x="12.1535" y="6.34122" width="56.8038" height="56.8038" rx="28.4019" fill="#AD4BFC"/>
</g>
</svg>
